
<svg width="39px" height="39px" viewBox="0 0 39 39" version="1.1" xmlns="http://www.w3.org/2000/svg" xmlns:xlink="http://www.w3.org/1999/xlink">
    <!-- Generator: Sketch 48.2 (47327) - http://www.bohemiancoding.com/sketch -->
    <desc>Created with Sketch.</desc>
    <defs></defs>
    <g id="good" stroke="none" stroke-width="1" fill="none" fill-rule="evenodd">
        <g id="1440" transform="translate(-509.000000, -221.000000)">
            <g id="all" transform="translate(-8.000000, 0.000000)">
                <g id="up">
                    <g id="up-content" transform="translate(63.000000, 163.000000)">
                        <g id="Group" transform="translate(455.000000, 7.000000)">
                            <g id="char">
                                <g id="lang" transform="translate(0.000000, 52.000000)">
                                    <g id="flag">
                                        <g id="white-flag-symbol" transform="translate(7.748075, 8.983539)" fill="#F55500" fill-rule="nonzero">
                                            <path d="M1.54431133,0 C1.11799571,0 0.754049188,0.1552025 0.452387258,0.464652675 C0.150894349,0.774493461 0,1.14835094 0,1.5861817 C0,1.87527674 0.070355388,2.13967653 0.21119293,2.37916405 C0.351819195,2.61873838 0.538884242,2.8087052 0.772050026,2.94919471 L0.772050026,18.6365391 C0.772050026,18.7522466 0.808178469,18.8472951 0.880646631,18.9215545 C0.952988027,18.995944 1.04540078,19.0329218 1.15813842,19.0329218 L1.93018845,19.0329218 C2.04284158,19.0329218 2.1353811,18.9959006 2.20768024,18.9215545 C2.28006389,18.8472951 2.31619233,18.7522466 2.31619233,18.6365391 L2.31619233,2.94919471 C2.54944263,2.8087052 2.73642317,2.61873838 2.87713394,2.37916405 C3.01792923,2.13967653 3.08824236,1.87514654 3.08824236,1.5861817 C3.08824236,1.14848114 2.93751703,0.774667065 2.63606638,0.464652675 C2.33444671,0.155072297 1.97045793,0 1.54431133,0 Z" id="Shape"></path>
                                            <path d="M20.4864578,1.72901818 C20.2368293,1.58025357 19.9874545,1.57208542 19.73753,1.70433994 C19.6653437,1.7458324 19.5404237,1.81600029 19.3634467,1.91523462 C17.8502826,2.84140727 16.6028166,3.30455876 15.6207527,3.30455876 C15.2101745,3.30455876 14.8518224,3.22596204 14.5460772,3.06889894 C13.6447842,2.61408938 12.8035407,2.25842727 12.0227697,2.00199949 C11.2419987,1.7458324 10.4008821,1.61757506 9.49946222,1.61757506 C8.91190697,1.61757506 8.28802597,1.69617178 7.62811524,1.85332178 C6.96807765,2.01038488 6.354219,2.21506656 5.78679304,2.46714958 C5.21940937,2.71940638 4.76045319,2.93438515 4.41047426,3.1122162 C4.06011473,3.29004726 3.74422027,3.46561904 3.46262171,3.63936602 C3.21307776,3.80472761 3.08824236,4.03213239 3.08824236,4.3216238 L3.08824236,13.5256518 C3.08824236,13.8316099 3.21705288,14.0632725 3.47458933,14.2202922 C3.60335755,14.2865932 3.73216807,14.3194396 3.86097858,14.3194396 C4.00577412,14.3194396 4.13868661,14.2822919 4.25929317,14.2080834 C5.02391002,13.7284218 5.94342933,13.3064586 7.01797798,12.9426284 C8.09265349,12.5787981 9.04046376,12.3968395 9.86145106,12.3968395 C10.3281037,12.3968395 10.7871445,12.4546683 11.2378121,12.5704996 C11.6884375,12.6862006 12.0548666,12.8063332 12.3364652,12.9301589 C12.6179369,13.0542887 13.016336,13.2526705 13.531705,13.5256518 L13.8697586,13.6993119 C14.432998,13.9889337 15.0688889,14.1337445 15.7770084,14.1337445 C16.9926312,14.1337445 18.4775889,13.6540829 20.2322622,12.6948032 C20.2887172,12.661783 20.357013,12.6246353 20.4374878,12.5831429 C20.7191287,12.4342914 20.8602028,12.1987619 20.8602028,11.8761634 L20.8602028,2.41127595 C20.8604143,2.12187144 20.7356212,1.89455356 20.4864578,1.72901818 Z M19.314815,11.4048872 C17.922342,12.1655245 16.7431718,12.5458648 15.7773467,12.5460386 C15.318602,12.5460386 14.9122526,12.4550159 14.5577911,12.2731876 L14.2199066,12.099571 C13.7770623,11.8762069 13.4449291,11.7129742 13.223803,11.609482 C13.00255,11.5059898 12.6924068,11.3778628 12.2943036,11.2249707 C11.8957353,11.0719916 11.5013958,10.9645023 11.111116,10.9024591 C10.7208362,10.8404593 10.3042108,10.8095247 9.86140877,10.8095247 C8.34807552,10.8095247 6.60570821,11.2767168 4.63354565,12.2113617 L4.63354565,4.78082156 C6.4849325,3.73043221 8.1068624,3.20532442 9.49925078,3.20532442 C10.2559174,3.20532442 10.9721986,3.31907026 11.6481366,3.54651848 C12.324117,3.77383637 13.0647986,4.09026529 13.8698431,4.49532733 C14.3766275,4.75996671 14.9602922,4.89230812 15.6202452,4.89230812 C16.722958,4.89230812 17.9545235,4.5159215 19.3148573,3.76349583 L19.3148573,11.4048872 L19.314815,11.4048872 Z" id="Shape"></path>
                                        </g>
                                        <ellipse id="Oval-Copy" stroke="#F55500" stroke-width="2" cx="18.1036763" cy="18.5" rx="18.1036763" ry="18.5"></ellipse>
                                    </g>
                                </g>
                            </g>
                        </g>
                    </g>
                </g>
            </g>
        </g>
    </g>
</svg>