
<svg width="39px" height="39px" viewBox="0 0 39 39" version="1.1" xmlns="http://www.w3.org/2000/svg" xmlns:xlink="http://www.w3.org/1999/xlink">
    <!-- Generator: Sketch 48.2 (47327) - http://www.bohemiancoding.com/sketch -->
    <desc>Created with Sketch.</desc>
    <defs></defs>
    <g id="good" stroke="none" stroke-width="1" fill="none" fill-rule="evenodd">
        <g id="1440" transform="translate(-509.000000, -273.000000)">
            <g id="all" transform="translate(-8.000000, 0.000000)">
                <g id="up">
                    <g id="up-content" transform="translate(63.000000, 163.000000)">
                        <g id="Group" transform="translate(455.000000, 7.000000)">
                            <g id="char">
                                <g id="key" transform="translate(0.000000, 104.000000)">
                                    <g>
                                        <g transform="translate(8.294686, 8.175523)" fill="#F55500" fill-rule="nonzero" id="Shape">
                                            <path d="M13.9004961,0.5 C10.0396163,0.5 6.8985218,3.64007271 6.8985218,7.49969655 C6.8985218,8.35774579 7.05102451,9.19156594 7.35214553,9.98339982 L0.657078361,16.6767744 C0.561384834,16.7724773 0.507610331,16.9021979 0.507610331,17.0374601 L0.507610331,20.699894 C0.507610331,20.9816228 0.736060926,21.2099991 1.0178814,21.2099991 L4.03702231,21.2099991 C4.17220712,21.2099991 4.30184859,21.1564039 4.39754212,21.0609033 L5.41496865,20.0453448 C5.51086449,19.9496419 5.56471992,19.8197595 5.56471992,19.6843355 L5.56471992,18.4354255 L6.81245832,18.4354255 C7.09427879,18.4354255 7.32272938,18.2070492 7.32272938,17.9253204 L7.32272938,17.4253681 L7.82288486,17.4253681 C8.10466487,17.4253681 8.33315593,17.1969918 8.33315593,16.915263 L8.33315593,15.8176331 L9.43114306,15.8176331 C9.56644926,15.8176331 9.69621211,15.7638761 9.7919461,15.6682137 L11.4153372,14.0453506 C12.2075502,14.3466568 13.041763,14.4993122 13.9004152,14.4993122 C17.761295,14.4993122 20.9023895,11.3592395 20.9023895,7.49961565 C20.90243,3.64007271 17.7613759,0.5 13.9004961,0.5 Z M13.7461989,13.352395 C12.9513039,13.352395 12.1825179,13.1919048 11.4611359,12.8753129 C11.2746002,12.7934703 11.0645356,12.8385107 10.9269829,12.9725156 C10.925481,12.9739399 10.9240177,12.9750948 10.9225544,12.9765962 L9.29156032,14.6070596 L7.96212726,14.6070596 C7.69391473,14.6070596 7.47649507,14.8244086 7.47649507,15.0925339 L7.47649507,16.1371638 L7.00049003,16.1371638 C6.73231601,16.1371638 6.51485784,16.3545127 6.51485784,16.622638 L6.51485784,17.0984497 L5.32732904,17.0984497 C5.05915502,17.0984497 4.84169685,17.3157987 4.84169685,17.5839239 L4.84169685,19.0566689 L4.15805334,19.7390122 L1.97134141,19.7390122 L1.97134141,19.0529733 L7.90709845,13.1191857 C8.07780716,12.9485325 8.07780716,12.6718996 7.90709845,12.5012849 C7.73638974,12.3306702 7.45974382,12.3305932 7.28891959,12.5012849 L1.97134141,17.8171718 L1.97134141,16.9400768 L8.42908278,10.4839742 C8.43054611,10.4825114 8.43166286,10.481164 8.43301066,10.4797396 C8.56709767,10.3423471 8.61230679,10.1323509 8.53043746,9.94572185 C8.21405065,9.22461306 8.05370076,8.45611557 8.05370076,7.66174871 C8.05370076,4.52385527 10.6073998,1.97098693 13.7463144,1.97098693 C16.8852289,1.97098693 19.438851,4.52381677 19.438851,7.66174871 C19.438774,10.7995652 16.8850364,13.352395 13.7461989,13.352395 Z"></path>
                                            <path d="M15.4141707,3.68115942 C14.2010666,3.68115942 13.2141707,4.68151297 13.2141707,5.91115944 C13.2141707,7.14080591 14.2010666,8.14115946 15.4141707,8.14115946 C16.6272749,8.14115946 17.6141708,7.14080591 17.6141708,5.91115944 C17.6141708,4.68151297 16.6273215,3.68115942 15.4141707,3.68115942 Z M15.4138516,6.81580981 C14.910614,6.81580981 14.501192,6.40998074 14.501192,5.91115944 C14.501192,5.41233814 14.910614,5.00650906 15.4138516,5.00650906 C15.9170891,5.00650906 16.3265111,5.41233814 16.3265111,5.91115944 C16.3265111,6.40998074 15.9170891,6.81580981 15.4138516,6.81580981 Z"></path>
                                        </g>
                                        <circle id="Oval-Copy-2" stroke="#F55500" stroke-width="2" cx="18.5" cy="18.5" r="18.5"></circle>
                                    </g>
                                </g>
                            </g>
                        </g>
                    </g>
                </g>
            </g>
        </g>
    </g>
</svg>